<?xml version="1.0" encoding="UTF-8"?>
<svg width="546px" height="533px" viewBox="0 0 546 533" version="1.1" xmlns="http://www.w3.org/2000/svg" xmlns:xlink="http://www.w3.org/1999/xlink" xmlns:sketch="http://www.bohemiancoding.com/sketch/ns">
    <title>Kubernetes Cluster</title>
    <description>Created with Sketch (http://www.bohemiancoding.com/sketch)</description>
    <defs></defs>
    <g id="Page-1" stroke="none" stroke-width="1" fill="none" fill-rule="evenodd" sketch:type="MSPage">
        <g id="Node" sketch:type="MSLayerGroup" transform="translate(53.000000, 26.000000)">
            <path d="M163.359173,398 L0,303.640835 L0,114.640835 L163.359173,20 L327,114.640835 L327,303.640835 L163.359173,398 Z" id="Node-outline" stroke="#326DE6" stroke-width="1.6" fill="#FFFFFF" sketch:type="MSShapeGroup"></path>
            <g id="Grafana-service" transform="translate(71.000000, 220.000000)">
                <ellipse id="Pod" stroke="#EEF406" stroke-width="2" fill-opacity="0.245174632" fill="#EEF406" sketch:type="MSShapeGroup" cx="93" cy="56.5" rx="79" ry="45.5"></ellipse>
                <g id="Telegraf-Volume" transform="translate(131.000000, 54.000000)" stroke="#011F38" stroke-width="0.8" fill="#8115FF" sketch:type="MSShapeGroup">
                    <path d="M21,15.8 L21,15.8 L21,5.2 L-0.1,5.2 L-0.1,15.8 L-0.1,15.8 L-0.1,16 C0.1,18.9 4.8,21.2 10.4,21.2 C16.1,21.2 20.7,18.9 20.9,16 L20.9,16 L20.9,15.8 L21,15.8 Z" id="Shape"></path>
                    <ellipse id="Oval" cx="10.6" cy="5.4" rx="10.6" ry="5.4"></ellipse>
                </g>
                <g id="Telegraf-Container" transform="translate(104.000000, 52.000000)" stroke="#011F38" stroke-width="0.8" fill="#06F7C9" sketch:type="MSShapeGroup">
                    <path d="M0.4,5.7 L10.9,-0.4 L21.5,5.7 L10.9,11.8 L0.4,5.7 Z" id="Shape"></path>
                    <path d="M0.4,17.9 L0.4,5.7 L10.9,11.8 L10.9,24 L0.4,17.9 Z" id="Shape"></path>
                    <path d="M10.9,24 L10.9,11.8 L21.5,5.7 L21.5,17.9 L10.9,24 Z" id="Shape"></path>
                </g>
                <g id="InfluxDB-Volume" transform="translate(67.000000, 54.000000)" stroke="#011F38" stroke-width="0.8" fill="#8115FF" sketch:type="MSShapeGroup">
                    <path d="M21,15.8 L21,15.8 L21,5.2 L-0.1,5.2 L-0.1,15.8 L-0.1,15.8 L-0.1,16 C0.1,18.9 4.8,21.2 10.4,21.2 C16.1,21.2 20.7,18.9 20.9,16 L20.9,16 L20.9,15.8 L21,15.8 Z" id="Shape"></path>
                    <ellipse id="Oval" cx="10.6" cy="5.4" rx="10.6" ry="5.4"></ellipse>
                </g>
                <g id="InfluxDB-Container" transform="translate(40.000000, 52.000000)" stroke="#011F38" stroke-width="0.8" fill="#06F7C9" sketch:type="MSShapeGroup">
                    <path d="M0.4,5.7 L10.9,-0.4 L21.5,5.7 L10.9,11.8 L0.4,5.7 Z" id="Shape"></path>
                    <path d="M0.4,17.9 L0.4,5.7 L10.9,11.8 L10.9,24 L0.4,17.9 Z" id="Shape"></path>
                    <path d="M10.9,24 L10.9,11.8 L21.5,5.7 L21.5,17.9 L10.9,24 Z" id="Shape"></path>
                </g>
                <text id="Grafana" sketch:type="MSTextLayer" font-family="Times New Roman" font-size="14" font-weight="normal" fill="#000000">
                    <tspan x="103" y="48">Grafana</tspan>
                </text>
                <text id="nginx" sketch:type="MSTextLayer" font-family="Times New Roman" font-size="14" font-weight="normal" fill="#000000">
                    <tspan x="35" y="48">nginx</tspan>
                </text>
                <path d="M92.5,114 C41.5347072,114 0,88.4056399 0,57 C0,25.5943601 41.5347072,0 92.5,0 C143.465293,0 185,25.5943601 185,57 C185,88.4056399 143.465293,114 92.5,114 L92.5,114 Z" id="Service" stroke="#EEF406" stroke-width="2" stroke-dasharray="2.4,1.6" sketch:type="MSShapeGroup"></path>
            </g>
            <g id="InfluxDB-service" transform="translate(71.000000, 83.000000)">
                <ellipse id="Pod" stroke="#06F7C9" stroke-width="2" fill-opacity="0.245174632" fill="#06F7C9" sketch:type="MSShapeGroup" cx="93" cy="56.5" rx="79" ry="45.5"></ellipse>
                <g id="Telegraf-Volume" transform="translate(131.000000, 54.000000)" stroke="#011F38" stroke-width="0.8" fill="#8115FF" sketch:type="MSShapeGroup">
                    <path d="M21,15.8 L21,15.8 L21,5.2 L-0.1,5.2 L-0.1,15.8 L-0.1,15.8 L-0.1,16 C0.1,18.9 4.8,21.2 10.4,21.2 C16.1,21.2 20.7,18.9 20.9,16 L20.9,16 L20.9,15.8 L21,15.8 Z" id="Shape"></path>
                    <ellipse id="Oval" cx="10.6" cy="5.4" rx="10.6" ry="5.4"></ellipse>
                </g>
                <g id="Telegraf-Container" transform="translate(104.000000, 52.000000)" stroke="#011F38" stroke-width="0.8" fill="#06F7C9" sketch:type="MSShapeGroup">
                    <path d="M0.4,5.7 L10.9,-0.4 L21.5,5.7 L10.9,11.8 L0.4,5.7 Z" id="Shape"></path>
                    <path d="M0.4,17.9 L0.4,5.7 L10.9,11.8 L10.9,24 L0.4,17.9 Z" id="Shape"></path>
                    <path d="M10.9,24 L10.9,11.8 L21.5,5.7 L21.5,17.9 L10.9,24 Z" id="Shape"></path>
                </g>
                <g id="InfluxDB-Volume" transform="translate(67.000000, 54.000000)" stroke="#011F38" stroke-width="0.8" fill="#8115FF" sketch:type="MSShapeGroup">
                    <path d="M21,15.8 L21,15.8 L21,5.2 L-0.1,5.2 L-0.1,15.8 L-0.1,15.8 L-0.1,16 C0.1,18.9 4.8,21.2 10.4,21.2 C16.1,21.2 20.7,18.9 20.9,16 L20.9,16 L20.9,15.8 L21,15.8 Z" id="Shape"></path>
                    <ellipse id="Oval" cx="10.6" cy="5.4" rx="10.6" ry="5.4"></ellipse>
                </g>
                <g id="InfluxDB-Container" transform="translate(40.000000, 52.000000)" stroke="#011F38" stroke-width="0.8" fill="#06F7C9" sketch:type="MSShapeGroup">
                    <path d="M0.4,5.7 L10.9,-0.4 L21.5,5.7 L10.9,11.8 L0.4,5.7 Z" id="Shape"></path>
                    <path d="M0.4,17.9 L0.4,5.7 L10.9,11.8 L10.9,24 L0.4,17.9 Z" id="Shape"></path>
                    <path d="M10.9,24 L10.9,11.8 L21.5,5.7 L21.5,17.9 L10.9,24 Z" id="Shape"></path>
                </g>
                <text id="Telegraf" sketch:type="MSTextLayer" font-family="Times New Roman" font-size="14" font-weight="normal" fill="#000000">
                    <tspan x="103" y="48">Telegraf</tspan>
                </text>
                <text id="InfluxDB" sketch:type="MSTextLayer" font-family="Times New Roman" font-size="14" font-weight="normal" fill="#000000">
                    <tspan x="35" y="48">InfluxDB</tspan>
                </text>
                <path d="M92.5,114 C41.5347072,114 0,88.4056399 0,57 C0,25.5943601 41.5347072,0 92.5,0 C143.465293,0 185,25.5943601 185,57 C185,88.4056399 143.465293,114 92.5,114 L92.5,114 Z" id="Service" stroke="#06F7C9" stroke-width="2" stroke-dasharray="2.4,1.6" sketch:type="MSShapeGroup"></path>
            </g>
            <text id="Node-(minikube-KVM)" sketch:type="MSTextLayer" font-family="Times New Roman" font-size="14" font-weight="normal" fill="#000000">
                <tspan x="97" y="12">Node (minikube KVM)</tspan>
            </text>
        </g>
        <g id="Master" sketch:type="MSLayerGroup" transform="translate(305.000000, 403.000000)">
            <path d="M27.7841561,116 L0,81.3816254 L9.87370838,38.1943463 L49.9425947,19 L90.0114811,38.1943463 L100,81.3816254 L72.2158439,116 L27.7841561,116 Z" id="Master-outline" stroke="#326DE6" stroke-width="3.2" fill="#FFFFFF" sketch:type="MSShapeGroup"></path>
            <text sketch:type="MSTextLayer" font-family="Times New Roman" font-size="14" font-weight="normal" fill="#000000">
                <tspan x="30" y="12">Master</tspan>
            </text>
            <g id="Deployments" transform="translate(26.000000, 40.000000)" sketch:type="MSShapeGroup">
                <g id="Group" transform="translate(0.000000, 31.000000)">
                    <circle id="Oval" stroke="#EEF406" stroke-width="2" fill="#326DE6" cx="14.1" cy="14.1" r="14.1"></circle>
                    <g transform="translate(4.000000, 4.000000)" id="Shape">
                        <path d="M14,1.5 C17,3.1 19,6.2 19,9.8 C19,15 14.8,19.2 9.6,19.2 C4.4,19.2 0.2,15 0.2,9.8 C0.2,5.7 2.8,2.2 6.5,0.9" stroke="#FFFFFF" stroke-width="1.2"></path>
                        <path d="M15.4,4.4 L14.4,1.7 L17,0.6 L15.5,-0.1 L12.8,1 L13.8,3.6 L15.4,4.4 Z" fill="#FFFFFF"></path>
                    </g>
                    <path d="M8.4,17.5 L9.2,17.4 L12.5,7.9 L14.7,7.9 L18,17.4 L18.8,17.5 L18.8,18.8 L15.1,18.8 L15.1,17.5 L15.9,17.4 L15.4,15.9 L11.9,15.9 L11.4,17.4 L12.2,17.5 L12.2,18.8 L8.5,18.8 L8.5,17.5 L8.4,17.5 Z M12.4,14.3 L14.9,14.3 L13.7,10.5 L12.4,14.3 L12.4,14.3 Z" id="Shape" fill="#FFFFFF"></path>
                </g>
                <g id="Group" transform="translate(19.000000, 0.000000)">
                    <circle id="Oval" stroke="#06F7C9" stroke-width="2" fill="#326DE6" cx="14.1" cy="14.1" r="14.1"></circle>
                    <g transform="translate(5.000000, 5.000000)" id="Shape">
                        <path d="M13.3,1.2 C16.3,2.8 18.3,5.9 18.3,9.5 C18.3,14.7 14.1,18.9 8.9,18.9 C3.7,18.9 -0.5,14.7 -0.5,9.5 C-0.5,5.4 2.1,1.9 5.8,0.6" stroke="#FFFFFF" stroke-width="1.2"></path>
                        <path d="M14.7,4.1 L13.6,1.4 L16.3,0.4 L14.7,-0.3 L12,0.7 L13.1,3.4 L14.7,4.1 Z" fill="#FFFFFF"></path>
                    </g>
                    <path d="M14.1,8.8 C15.4,8.8 16.4,9 17.1,9.5 C17.8,10 18.2,10.7 18.2,11.7 C18.2,12.2 18.1,12.7 17.8,13 C17.5,13.4 17.1,13.7 16.6,13.9 C17.3,14 17.7,14.3 18.1,14.8 C18.4,15.3 18.6,15.8 18.6,16.4 C18.6,17.4 18.3,18.2 17.6,18.8 C16.9,19.3 15.9,19.6 14.7,19.6 L9.4,19.6 L9.4,18.3 L10.6,18.1 L10.6,10.3 L9.4,10.1 L9.4,8.8 L10.6,8.8 L14.1,8.8 L14.1,8.8 Z M12.6,13.3 L14.2,13.3 C14.8,13.3 15.2,13.2 15.5,12.9 C15.8,12.7 16,12.3 16,11.9 C16,11.4 15.8,11 15.5,10.8 C15.2,10.6 14.7,10.4 14.1,10.4 L12.6,10.4 L12.6,13.3 L12.6,13.3 Z M12.6,14.8 L12.6,17.9 L14.6,17.9 C15.2,17.9 15.6,17.8 15.9,17.5 C16.2,17.2 16.4,16.9 16.4,16.4 C16.4,15.9 16.3,15.5 16,15.2 C15.7,14.9 15.3,14.8 14.8,14.8 L12.6,14.8 L12.6,14.8 Z" id="Shape" fill="#FFFFFF"></path>
                </g>
            </g>
        </g>
        <g id="Descriptions" sketch:type="MSLayerGroup" transform="translate(276.000000, 159.000000)">
            <g id="Service-description" transform="translate(33.000000, 0.000000)">
                <text id="Service" sketch:type="MSTextLayer" font-family="Times New Roman" font-size="14" font-weight="normal" fill="#000000">
                    <tspan x="165" y="12">Service</tspan>
                </text>
                <path d="M162.3,8 L0,8" id="Shape" stroke="#011F38" stroke-width="0.3" sketch:type="MSShapeGroup"></path>
            </g>
            <g id="Pod-description" transform="translate(1.000000, 29.000000)">
                <text id="Pod" sketch:type="MSTextLayer" font-family="Times New Roman" font-size="14" font-weight="normal" fill="#000000">
                    <tspan x="165" y="12">Pod</tspan>
                </text>
                <path d="M162.3,8 L0,8" id="Shape" stroke="#011F38" stroke-width="0.3" sketch:type="MSShapeGroup"></path>
            </g>
        </g>
    </g>
</svg>