<?xml version="1.0" encoding="UTF-8"?>
<svg width="445px" height="533px" viewBox="0 0 445 533" version="1.1" xmlns="http://www.w3.org/2000/svg" xmlns:xlink="http://www.w3.org/1999/xlink" xmlns:sketch="http://www.bohemiancoding.com/sketch/ns">
    <title>Kubernetes Cluster</title>
    <description>Created with Sketch (http://www.bohemiancoding.com/sketch)</description>
    <defs></defs>
    <g id="Page-1" stroke="none" stroke-width="1" fill="none" fill-rule="evenodd" sketch:type="MSPage">
        <g id="Node" sketch:type="MSLayerGroup" transform="translate(53.000000, -32.000000)">
            <path d="M163.359173,456 L0,361.640835 L0,172.640835 L163.359173,78 L327,172.640835 L327,361.640835 L163.359173,456 Z" id="Node-outline" stroke="#326DE6" stroke-width="1.6" fill="#FFFFFF" sketch:type="MSShapeGroup"></path>
            <g id="nginx-service" transform="translate(178.000000, 283.000000)">
                <g id="Volume" transform="translate(50.000000, 56.000000)" stroke="#011F38" stroke-width="0.8" fill="#8115FF" sketch:type="MSShapeGroup">
                    <path d="M21,15.8 L21,15.8 L21,5.2 L-0.1,5.2 L-0.1,15.8 L-0.1,15.8 L-0.1,16 C0.1,18.9 4.8,21.2 10.4,21.2 C16.1,21.2 20.7,18.9 20.9,16 L20.9,16 L20.9,15.8 L21,15.8 Z" id="Shape"></path>
                    <ellipse id="Oval" cx="10.6" cy="5.4" rx="10.6" ry="5.4"></ellipse>
                </g>
                <g id="Container" transform="translate(23.000000, 54.000000)" stroke="#011F38" stroke-width="0.8" fill="#06F7C9" sketch:type="MSShapeGroup">
                    <path d="M0.4,5.7 L10.9,-0.4 L21.5,5.7 L10.9,11.8 L0.4,5.7 Z" id="Shape"></path>
                    <path d="M0.4,17.9 L0.4,5.7 L10.9,11.8 L10.9,24 L0.4,17.9 Z" id="Shape"></path>
                    <path d="M10.9,24 L10.9,11.8 L21.5,5.7 L21.5,17.9 L10.9,24 Z" id="Shape"></path>
                </g>
                <ellipse id="Pod" stroke="#06F7C9" stroke-width="2" sketch:type="MSShapeGroup" cx="47.5" cy="66" rx="33.5" ry="36"></ellipse>
                <path d="M48,114 C21.5531453,114 0,92.4468547 0,66 C0,39.5531453 21.5531453,18 48,18 C74.4468547,18 96,39.5531453 96,66 C96,92.4468547 74.4468547,114 48,114 L48,114 Z" id="Service" stroke="#EEF406" stroke-width="2" stroke-dasharray="2.4,1.6" sketch:type="MSShapeGroup"></path>
                <text id="NGINX" sketch:type="MSTextLayer" font-family="Times New Roman" font-size="14" font-weight="normal" fill="#000000">
                    <tspan x="25" y="12">NGINX</tspan>
                </text>
            </g>
            <g id="Grafana-service" transform="translate(48.000000, 283.000000)">
                <g id="Volume" transform="translate(50.000000, 56.000000)" stroke="#011F38" stroke-width="0.8" fill="#8115FF" sketch:type="MSShapeGroup">
                    <path d="M21,15.8 L21,15.8 L21,5.2 L-0.1,5.2 L-0.1,15.8 L-0.1,15.8 L-0.1,16 C0.1,18.9 4.8,21.2 10.4,21.2 C16.1,21.2 20.7,18.9 20.9,16 L20.9,16 L20.9,15.8 L21,15.8 Z" id="Shape"></path>
                    <ellipse id="Oval" cx="10.6" cy="5.4" rx="10.6" ry="5.4"></ellipse>
                </g>
                <g id="Container" transform="translate(23.000000, 54.000000)" stroke="#011F38" stroke-width="0.8" fill="#06F7C9" sketch:type="MSShapeGroup">
                    <path d="M0.4,5.7 L10.9,-0.4 L21.5,5.7 L10.9,11.8 L0.4,5.7 Z" id="Shape"></path>
                    <path d="M0.4,17.9 L0.4,5.7 L10.9,11.8 L10.9,24 L0.4,17.9 Z" id="Shape"></path>
                    <path d="M10.9,24 L10.9,11.8 L21.5,5.7 L21.5,17.9 L10.9,24 Z" id="Shape"></path>
                </g>
                <ellipse id="Pod" stroke="#06F7C9" stroke-width="2" sketch:type="MSShapeGroup" cx="47.5" cy="66" rx="33.5" ry="36"></ellipse>
                <path d="M48,114 C21.5531453,114 0,92.4468547 0,66 C0,39.5531453 21.5531453,18 48,18 C74.4468547,18 96,39.5531453 96,66 C96,92.4468547 74.4468547,114 48,114 L48,114 Z" id="Service" stroke="#EEF406" stroke-width="2" stroke-dasharray="2.4,1.6" sketch:type="MSShapeGroup"></path>
                <text id="Grafana" sketch:type="MSTextLayer" font-family="Times New Roman" font-size="14" font-weight="normal" fill="#000000">
                    <tspan x="24" y="12">Grafana</tspan>
                </text>
            </g>
            <g id="Telegraf-service" transform="translate(178.000000, 153.000000)">
                <g id="Volume" transform="translate(50.000000, 56.000000)" stroke="#011F38" stroke-width="0.8" fill="#8115FF" sketch:type="MSShapeGroup">
                    <path d="M21,15.8 L21,15.8 L21,5.2 L-0.1,5.2 L-0.1,15.8 L-0.1,15.8 L-0.1,16 C0.1,18.9 4.8,21.2 10.4,21.2 C16.1,21.2 20.7,18.9 20.9,16 L20.9,16 L20.9,15.8 L21,15.8 Z" id="Shape"></path>
                    <ellipse id="Oval" cx="10.6" cy="5.4" rx="10.6" ry="5.4"></ellipse>
                </g>
                <g id="Container" transform="translate(23.000000, 54.000000)" stroke="#011F38" stroke-width="0.8" fill="#06F7C9" sketch:type="MSShapeGroup">
                    <path d="M0.4,5.7 L10.9,-0.4 L21.5,5.7 L10.9,11.8 L0.4,5.7 Z" id="Shape"></path>
                    <path d="M0.4,17.9 L0.4,5.7 L10.9,11.8 L10.9,24 L0.4,17.9 Z" id="Shape"></path>
                    <path d="M10.9,24 L10.9,11.8 L21.5,5.7 L21.5,17.9 L10.9,24 Z" id="Shape"></path>
                </g>
                <ellipse id="Pod" stroke="#06F7C9" stroke-width="2" sketch:type="MSShapeGroup" cx="47.5" cy="66" rx="33.5" ry="36"></ellipse>
                <path d="M48,114 C21.5531453,114 0,92.4468547 0,66 C0,39.5531453 21.5531453,18 48,18 C74.4468547,18 96,39.5531453 96,66 C96,92.4468547 74.4468547,114 48,114 L48,114 Z" id="Service" stroke="#EEF406" stroke-width="2" stroke-dasharray="2.4,1.6" sketch:type="MSShapeGroup"></path>
                <text id="Telegraf" sketch:type="MSTextLayer" font-family="Times New Roman" font-size="14" font-weight="normal" fill="#000000">
                    <tspan x="25" y="12">Telegraf</tspan>
                </text>
            </g>
            <g id="InfluxDB-service" transform="translate(48.000000, 153.000000)">
                <g id="Volume" transform="translate(50.000000, 56.000000)" stroke="#011F38" stroke-width="0.8" fill="#8115FF" sketch:type="MSShapeGroup">
                    <path d="M21,15.8 L21,15.8 L21,5.2 L-0.1,5.2 L-0.1,15.8 L-0.1,15.8 L-0.1,16 C0.1,18.9 4.8,21.2 10.4,21.2 C16.1,21.2 20.7,18.9 20.9,16 L20.9,16 L20.9,15.8 L21,15.8 Z" id="Shape"></path>
                    <ellipse id="Oval" cx="10.6" cy="5.4" rx="10.6" ry="5.4"></ellipse>
                </g>
                <g id="Container" transform="translate(23.000000, 54.000000)" stroke="#011F38" stroke-width="0.8" fill="#06F7C9" sketch:type="MSShapeGroup">
                    <path d="M0.4,5.7 L10.9,-0.4 L21.5,5.7 L10.9,11.8 L0.4,5.7 Z" id="Shape"></path>
                    <path d="M0.4,17.9 L0.4,5.7 L10.9,11.8 L10.9,24 L0.4,17.9 Z" id="Shape"></path>
                    <path d="M10.9,24 L10.9,11.8 L21.5,5.7 L21.5,17.9 L10.9,24 Z" id="Shape"></path>
                </g>
                <ellipse id="Pod" stroke="#06F7C9" stroke-width="2" sketch:type="MSShapeGroup" cx="47.5" cy="66" rx="33.5" ry="36"></ellipse>
                <path d="M48,114 C21.5531453,114 0,92.4468547 0,66 C0,39.5531453 21.5531453,18 48,18 C74.4468547,18 96,39.5531453 96,66 C96,92.4468547 74.4468547,114 48,114 L48,114 Z" id="Service" stroke="#EEF406" stroke-width="2" stroke-dasharray="2.4,1.6" sketch:type="MSShapeGroup"></path>
                <text id="InfluxDB" sketch:type="MSTextLayer" font-family="Times New Roman" font-size="14" font-weight="normal" fill="#000000">
                    <tspan x="21" y="12">InfluxDB</tspan>
                </text>
            </g>
            <text sketch:type="MSTextLayer" font-family="Times New Roman" font-size="14" font-weight="normal" fill="#000000">
                <tspan x="147" y="69">Node</tspan>
            </text>
        </g>
        <g id="Master" sketch:type="MSLayerGroup" transform="translate(305.000000, -56.000000)">
            <path d="M27.7841561,575 L0,540.381625 L9.87370838,497.194346 L49.9425947,478 L90.0114811,497.194346 L100,540.381625 L72.2158439,575 L27.7841561,575 Z" id="Master-outline" stroke="#326DE6" stroke-width="3.2" fill="#FFFFFF" sketch:type="MSShapeGroup"></path>
            <g id="nginx-deployment" transform="translate(19.000000, 533.000000)">
                <circle id="Oval" stroke="#EEF406" stroke-width="2" fill="#326DE6" sketch:type="MSShapeGroup" cx="14.1" cy="14.1" r="14.1"></circle>
                <g id="Group" transform="translate(4.000000, 4.000000)" sketch:type="MSShapeGroup">
                    <path d="M14,1.5 C17,3.1 19,6.2 19,9.8 C19,15 14.8,19.2 9.6,19.2 C4.4,19.2 0.2,15 0.2,9.8 C0.2,5.7 2.8,2.2 6.5,0.9" id="Shape" stroke="#FFFFFF" stroke-width="1.2"></path>
                    <path d="M15.4,4.4 L14.4,1.7 L17,0.6 L15.5,-0.1 L12.8,1 L13.8,3.6 L15.4,4.4 Z" id="Shape" fill="#FFFFFF"></path>
                </g>
                <text id="N" sketch:type="MSTextLayer" font-family="Times New Roman" font-size="14" font-weight="normal" fill="#FFFFFF">
                    <tspan x="8" y="18">N</tspan>
                </text>
            </g>
            <g id="Grafana-deployment" transform="translate(49.000000, 533.000000)">
                <circle id="Oval" stroke="#EEF406" stroke-width="2" fill="#326DE6" sketch:type="MSShapeGroup" cx="14.1" cy="14.1" r="14.1"></circle>
                <g id="Group" transform="translate(4.000000, 4.000000)" sketch:type="MSShapeGroup">
                    <path d="M14,1.5 C17,3.1 19,6.2 19,9.8 C19,15 14.8,19.2 9.6,19.2 C4.4,19.2 0.2,15 0.2,9.8 C0.2,5.7 2.8,2.2 6.5,0.9" id="Shape" stroke="#FFFFFF" stroke-width="1.2"></path>
                    <path d="M15.4,4.4 L14.4,1.7 L17,0.6 L15.5,-0.1 L12.8,1 L13.8,3.6 L15.4,4.4 Z" id="Shape" fill="#FFFFFF"></path>
                </g>
                <text id="G" sketch:type="MSTextLayer" font-family="Times New Roman" font-size="14" font-weight="normal" fill="#FFFFFF">
                    <tspan x="8" y="18">G</tspan>
                </text>
            </g>
            <g id="Telegraf-deployment" transform="translate(49.000000, 498.000000)">
                <circle id="Oval" stroke="#EEF406" stroke-width="2" fill="#326DE6" sketch:type="MSShapeGroup" cx="14.1" cy="14.1" r="14.1"></circle>
                <g id="Group" transform="translate(4.000000, 4.000000)" sketch:type="MSShapeGroup">
                    <path d="M14,1.5 C17,3.1 19,6.2 19,9.8 C19,15 14.8,19.2 9.6,19.2 C4.4,19.2 0.2,15 0.2,9.8 C0.2,5.7 2.8,2.2 6.5,0.9" id="Shape" stroke="#FFFFFF" stroke-width="1.2"></path>
                    <path d="M15.4,4.4 L14.4,1.7 L17,0.6 L15.5,-0.1 L12.8,1 L13.8,3.6 L15.4,4.4 Z" id="Shape" fill="#FFFFFF"></path>
                </g>
                <text id="T" sketch:type="MSTextLayer" font-family="Times New Roman" font-size="14" font-weight="normal" fill="#FFFFFF">
                    <tspan x="9" y="18">T</tspan>
                </text>
            </g>
            <g id="InfluxDB-deployment" transform="translate(19.000000, 498.000000)">
                <circle id="Oval" stroke="#EEF406" stroke-width="2" fill="#326DE6" sketch:type="MSShapeGroup" cx="14.1" cy="14.1" r="14.1"></circle>
                <g id="Group" transform="translate(4.000000, 4.000000)" sketch:type="MSShapeGroup">
                    <path d="M14,1.5 C17,3.1 19,6.2 19,9.8 C19,15 14.8,19.2 9.6,19.2 C4.4,19.2 0.2,15 0.2,9.8 C0.2,5.7 2.8,2.2 6.5,0.9" id="Shape" stroke="#FFFFFF" stroke-width="1.2"></path>
                    <path d="M15.4,4.4 L14.4,1.7 L17,0.6 L15.5,-0.1 L12.8,1 L13.8,3.6 L15.4,4.4 Z" id="Shape" fill="#FFFFFF"></path>
                </g>
                <text id="I" sketch:type="MSTextLayer" font-family="Times New Roman" font-size="14" font-weight="normal" fill="#FFFFFF">
                    <tspan x="11.5" y="17.8945312">I</tspan>
                </text>
            </g>
            <text sketch:type="MSTextLayer" font-family="Times New Roman" font-size="14" font-weight="normal" fill="#000000">
                <tspan x="30" y="471">Master</tspan>
            </text>
        </g>
    </g>
</svg>